<?xml version="1.0" encoding="UTF-8"?>
<svg version="1.1" xmlns="http://www.w3.org/2000/svg" width="175" height="44">
<path d="M0 0 C57.75 0 115.5 0 175 0 C175 14.52 175 29.04 175 44 C117.25 44 59.5 44 0 44 C0 29.48 0 14.96 0 0 Z " fill="#F9FDFD" transform="translate(0,0)"/>
<path d="M0 0 C4.14587582 -0.0268245 8.29158038 -0.04675315 12.4375 -0.0625 C13.62150391 -0.07087891 14.80550781 -0.07925781 16.02539062 -0.08789062 C17.15009766 -0.09111328 18.27480469 -0.09433594 19.43359375 -0.09765625 C20.47572021 -0.10289307 21.51784668 -0.10812988 22.59155273 -0.11352539 C25 0 25 0 26 1 C25.92426205 4.74145485 25.82287101 8.4747574 25.609375 12.2109375 C25.46428664 17.53670542 25.46428664 17.53670542 28.51953125 21.8828125 C29.33808594 22.58148437 30.15664062 23.28015625 31 24 C30.92093582 27.95320924 30.20236257 29.69645615 28 33 C27.01 33 26.02 33 25 33 C25 33.99 25 34.98 25 36 C20.74585377 36.02465622 16.49174502 36.04283899 12.23754883 36.05493164 C10.78929927 36.05997101 9.34105483 36.06680253 7.89282227 36.07543945 C5.81525412 36.08752247 3.73775303 36.09323211 1.66015625 36.09765625 C0.40855713 36.10289307 -0.84304199 36.10812988 -2.13256836 36.11352539 C-5 36 -5 36 -6 35 C-6.15135944 33.2127943 -6.22175778 31.41838124 -6.25 29.625 C-6.28867188 28.15933594 -6.28867188 28.15933594 -6.328125 26.6640625 C-6 24 -6 24 -4.609375 22.1484375 C-3 21 -3 21 -1 21 C-0.67 14.07 -0.34 7.14 0 0 Z " fill="#78D3F1" transform="translate(139,4)"/>
<path d="M0 0 C2.97 0 5.94 0 9 0 C9 14.52 9 29.04 9 44 C2.461875 44.0825 -4.07625 44.165 -10.8125 44.25 C-12.87346924 44.28641602 -14.93443848 44.32283203 -17.05786133 44.36035156 C-18.69090736 44.37203366 -20.32396503 44.38222661 -21.95703125 44.390625 C-22.80535522 44.41108887 -23.6536792 44.43155273 -24.52770996 44.45263672 C-30.48758546 44.45618585 -30.48758546 44.45618585 -33.046875 42.17773438 C-34.385974 39.11811269 -34.28717865 36.57262164 -34.1875 33.25 C-34.16042969 32.07953125 -34.13335937 30.9090625 -34.10546875 29.703125 C-34.07066406 28.81109375 -34.03585938 27.9190625 -34 27 C-33.34 27.33 -32.68 27.66 -32 28 C-32 31.63 -32 35.26 -32 39 C-22.1 39.33 -12.2 39.66 -2 40 C-2 39.01 -2 38.02 -2 37 C-1.01 37 -0.02 37 1 37 C2.80230168 33.17010894 3.19622241 30.21878192 3 26 C2.01 25.67 1.02 25.34 0 25 C-0.19585353 21.02119772 -0.3802867 17.04194844 -0.5625 13.0625 C-0.64661133 11.35803711 -0.64661133 11.35803711 -0.73242188 9.61914062 C-0.78076172 8.53955078 -0.82910156 7.45996094 -0.87890625 6.34765625 C-0.9260376 5.34742432 -0.97316895 4.34719238 -1.02172852 3.31665039 C-1 1 -1 1 0 0 Z " fill="#F8FDFD" transform="translate(166,0)"/>
<path d="M0 0 C4.14587582 -0.0268245 8.29158038 -0.04675315 12.4375 -0.0625 C13.62150391 -0.07087891 14.80550781 -0.07925781 16.02539062 -0.08789062 C17.15009766 -0.09111328 18.27480469 -0.09433594 19.43359375 -0.09765625 C20.47572021 -0.10289307 21.51784668 -0.10812988 22.59155273 -0.11352539 C25 0 25 0 26 1 C26.08631874 2.34267413 26.10706473 3.68974322 26.09765625 5.03515625 C26.09443359 5.84404297 26.09121094 6.65292969 26.08789062 7.48632812 C26.07532227 8.7615332 26.07532227 8.7615332 26.0625 10.0625 C26.05798828 10.91650391 26.05347656 11.77050781 26.04882812 12.65039062 C26.03700373 14.76695663 26.01906769 16.88348685 26 19 C25.67 19 25.34 19 25 19 C25 15.37 25 11.74 25 8 C24.01 8.495 24.01 8.495 23 9 C21.47851674 9.08372659 19.95344222 9.10730027 18.4296875 9.09765625 C17.53378906 9.09443359 16.63789063 9.09121094 15.71484375 9.08789062 C14.77769531 9.07951172 13.84054688 9.07113281 12.875 9.0625 C11.45767578 9.05573242 11.45767578 9.05573242 10.01171875 9.04882812 C7.67441613 9.03702357 5.33723939 9.02055759 3 9 C2.97494385 9.74685059 2.9498877 10.49370117 2.92407227 11.26318359 C2.80831787 14.63397267 2.68549872 18.00446783 2.5625 21.375 C2.50352539 23.1384375 2.50352539 23.1384375 2.44335938 24.9375 C2.40146484 26.05898438 2.35957031 27.18046875 2.31640625 28.3359375 C2.26141968 29.89127197 2.26141968 29.89127197 2.20532227 31.47802734 C2 34 2 34 1 36 C-0.99954746 36.04254356 -3.00041636 36.04080783 -5 36 C-6.73219928 34.26780072 -6.21291761 31.97973192 -6.25 29.625 C-6.28867188 28.15933594 -6.28867188 28.15933594 -6.328125 26.6640625 C-6 24 -6 24 -4.609375 22.1484375 C-3 21 -3 21 -1 21 C-0.67 14.07 -0.34 7.14 0 0 Z " fill="#75C8EA" transform="translate(139,4)"/>
<path d="M0 0 C3.58552881 1.63687185 4.79315055 2.68972583 7 6 C7.73446576 10.56051995 7.59262059 14.01911074 5.1875 18 C1.76688216 21.12742203 -1.44334973 21.33489089 -5.99609375 21.29296875 C-9.14507222 20.83259178 -10.834621 19.23099654 -13 17 C-14.72869779 13.54260443 -14.48966895 9.78024432 -14 6 C-10.31453475 0.1032556 -6.74951906 -0.73843107 0 0 Z " fill="#58B3E3" transform="translate(40,11)"/>
<path d="M0 0 C3.52067361 1.7603368 4.4699232 2.2469297 6.625 5.125 C7.40875 6.07375 8.1925 7.0225 9 8 C9.66 8 10.32 8 11 8 C12.21783349 6.71323254 13.3770622 5.37036477 14.5 4 C15.6229378 2.62963523 16.78216651 1.28676746 18 0 C18.66 0 19.32 0 20 0 C20 6.93 20 13.86 20 21 C18.35 21 16.7 21 15 21 C15 18.36 15 15.72 15 13 C13.68 13.99 12.36 14.98 11 16 C7.125 14.125 7.125 14.125 6 13 C5.67 15.64 5.34 18.28 5 21 C3.35 21 1.7 21 0 21 C0 14.07 0 7.14 0 0 Z " fill="#4BB3EC" transform="translate(51,11)"/>
<path d="M0 0 C11.28 0 11.28 0 15 3 C16 4 16 4 16.4375 7.8125 C16.4140625 9.98828125 16.4140625 9.98828125 16 12 C13.03885613 14.75455243 11.16451637 15.89873771 7.125 16.25 C6.42375 16.1675 5.7225 16.085 5 16 C5 17.65 5 19.3 5 21 C3.35 21 1.7 21 0 21 C0 14.07 0 7.14 0 0 Z " fill="#52B0E3" transform="translate(76,11)"/>
<path d="M0 0 C2.9375 1.1875 2.9375 1.1875 5 3 C5.8125 5.6875 5.8125 5.6875 6 8 C4.35 8 2.7 8 1 8 C0.67 7.34 0.34 6.68 0 6 C-2.31 6 -4.62 6 -7 6 C-8.39431504 8.78863007 -8.25660094 10.92078868 -8 14 C-5.23254916 16.30075262 -5.23254916 16.30075262 -2.375 15.75 C-1.59125 15.5025 -0.8075 15.255 0 15 C0.33 14.34 0.66 13.68 1 13 C2.65 13 4.3 13 6 13 C5.69209738 15.84809926 5.34521809 17.58286148 3.5 19.8125 C-0.30593187 21.62031764 -3.86581615 21.68534599 -8 21 C-10.87029869 19.20606332 -12.49131638 18.01736724 -14 15 C-14.55512815 10.36786507 -14.6364242 7.01827873 -12.125 3 C-8.41242109 -0.49419191 -4.92264668 -0.51866967 0 0 Z " fill="#5EB4E2" transform="translate(17,11)"/>
<path d="M0 0 C2.27076842 -0.02699725 4.54162821 -0.04639453 6.8125 -0.0625 C8.70935547 -0.07990234 8.70935547 -0.07990234 10.64453125 -0.09765625 C14 0 14 0 17 1 C16.67 1.99 16.34 2.98 16 4 C14.68 3.34 13.36 2.68 12 2 C8.7 1.67 5.4 1.34 2 1 C2 7.93 2 14.86 2 22 C-1.8726592 22.9681648 -5.03611362 23.07622858 -9 23 C-9.66 21.68 -10.32 20.36 -11 19 C-11.8971875 19.4640625 -11.8971875 19.4640625 -12.8125 19.9375 C-15 21 -15 21 -18 22 C-18 19.03 -18 16.06 -18 13 C-17.46375 13.53625 -16.9275 14.0725 -16.375 14.625 C-13.96052929 16.39067945 -13.96052929 16.39067945 -10.75 15.1875 C-9.8425 14.795625 -8.935 14.40375 -8 14 C-8 16.64 -8 19.28 -8 22 C-6.35 22 -4.7 22 -3 22 C-3 15.4 -3 8.8 -3 2 C-2.01 2 -1.02 2 0 2 C0 1.34 0 0.68 0 0 Z " fill="#D6F8FE" transform="translate(74,10)"/>
<path d="M0 0 C2.8125 -0.3125 2.8125 -0.3125 6 0 C7.75 2.4375 7.75 2.4375 9 5 C9.66 5.33 10.32 5.66 11 6 C11.309375 5.195625 11.61875 4.39125 11.9375 3.5625 C13 1 13 1 14 0 C15.66617115 -0.04063832 17.33388095 -0.042721 19 0 C17.89778101 3.03110222 16.67639087 5.50992954 14.9375 8.25 C12.52381304 12.31468474 12.21098994 16.3476718 12 21 C10.35 21 8.7 21 7 21 C6.99742188 20.38253906 6.99484375 19.76507812 6.9921875 19.12890625 C6.69919299 12.71232645 5.15465225 8.92142414 1.27734375 3.8125 C0 2 0 2 0 0 Z " fill="#4DB3EC" transform="translate(109,11)"/>
<path d="M0 0 C5.94 0 11.88 0 18 0 C17.34346 3.28269998 16.66854405 6.54716991 15.9375 9.8125 C15.76089844 10.60269531 15.58429688 11.39289062 15.40234375 12.20703125 C15.26957031 12.79871094 15.13679688 13.39039063 15 14 C14.34 13.67 13.68 13.34 13 13 C13 12.34 13 11.68 13 11 C9.7 11 6.4 11 3 11 C3 10.34 3 9.68 3 9 C6.3 9 9.6 9 13 9 C13 8.01 13 7.02 13 6 C11.329375 6.061875 11.329375 6.061875 9.625 6.125 C6 6 6 6 4 4 C6.97 4 9.94 4 13 4 C13 3.34 13 2.68 13 2 C9.04 2 5.08 2 1 2 C1.33 6.95 1.66 11.9 2 17 C8.93 17 15.86 17 23 17 C23 17.66 23 18.32 23 19 C15.08 19 7.16 19 -1 19 C-0.67 12.73 -0.34 6.46 0 0 Z " fill="#57B2DE" transform="translate(141,21)"/>
<path d="M0 0 C8.25 0 16.5 0 25 0 C25 0.33 25 0.66 25 1 C17.08 1 9.16 1 1 1 C1 12.55 1 24.1 1 36 C-0.98 36 -2.96 36 -5 36 C-6.73219928 34.26780072 -6.21291761 31.97973192 -6.25 29.625 C-6.28867188 28.15933594 -6.28867188 28.15933594 -6.328125 26.6640625 C-6 24 -6 24 -4.609375 22.1484375 C-3 21 -3 21 -1 21 C-0.67 14.07 -0.34 7.14 0 0 Z " fill="#BCEEFA" transform="translate(139,4)"/>
<path d="M0 0 C1.65 0 3.3 0 5 0 C5 5.28 5 10.56 5 16 C7.31 16 9.62 16 12 16 C12 17.65 12 19.3 12 21 C8.04 21 4.08 21 0 21 C0 14.07 0 7.14 0 0 Z " fill="#5DB2DE" transform="translate(96,11)"/>
<path d="M0 0 C3.5625 0.3125 3.5625 0.3125 5.5625 1.4375 C7.08982345 4.30123147 6.40528671 6.26550191 5.5625 9.3125 C3.5625 11.3125 3.5625 11.3125 0.0625 11.625 C-1.67 11.4703125 -1.67 11.4703125 -3.4375 11.3125 C-5.73913882 7.86004176 -5.78240322 6.36511287 -5.4375 2.3125 C-3.4375 0.3125 -3.4375 0.3125 0 0 Z " fill="#4FB6E8" transform="translate(163.4375,24.6875)"/>
<path d="M0 0 C0.66 0 1.32 0 2 0 C1.95359375 0.61488281 1.9071875 1.22976562 1.859375 1.86328125 C1.49146247 6.8595359 1.49146247 6.8595359 3.6875 11.125 C6.57968336 12.21933965 8.10337772 12.01773215 11 11 C11.33 10.34 11.66 9.68 12 9 C13.65 9 15.3 9 17 9 C16.69209738 11.84809926 16.34521809 13.58286148 14.5 15.8125 C10.73512805 17.60081417 7.09873595 17.23646554 3 17 C2.67 15.68 2.34 14.36 2 13 C1.34 13 0.68 13 0 13 C-2.215015 9.6774775 -2.19410876 9.12268409 -1.6875 5.375 C-1.58824219 4.57835937 -1.48898438 3.78171875 -1.38671875 2.9609375 C-1 1 -1 1 0 0 Z " fill="#51B1E8" transform="translate(6,15)"/>
<path d="M0 0 C2.66666667 1.33333333 5.33333333 2.66666667 8 4 C8 4.99 8 5.98 8 7 C9.65 7 11.3 7 13 7 C12.34 8.32 11.68 9.64 11 11 C7.7089747 9.90299157 7.03976712 9.12380142 4.9375 6.5 C2.82278233 3.81893599 2.82278233 3.81893599 0 2 C0 8.93 0 15.86 0 23 C-0.33 23 -0.66 23 -1 23 C-1.33 18.38 -1.66 13.76 -2 9 C-2.33 10.98 -2.66 12.96 -3 15 C-3.33 15 -3.66 15 -4 15 C-4.08636719 14.38511719 -4.17273437 13.77023438 -4.26171875 13.13671875 C-5.07007084 7.93407342 -5.07007084 7.93407342 -8.3125 4 C-10.8852937 3.04268141 -13.28428467 2.38795933 -16 2 C-16 1.67 -16 1.34 -16 1 C-13.03 1 -10.06 1 -7 1 C-7 1.66 -7 2.32 -7 3 C-3.12202338 3.43386092 -3.12202338 3.43386092 -1.25 1.5 C-0.8375 1.005 -0.425 0.51 0 0 Z " fill="#D1F6FE" transform="translate(51,9)"/>
<path d="M0 0 C1.8125 1.1875 1.8125 1.1875 3 3 C3.4334014 5.88934264 3.42525784 7.35092224 1.8125 9.8125 C-0.64907776 11.42525784 -2.11065736 11.4334014 -5 11 C-6.8125 9.8125 -6.8125 9.8125 -8 8 C-8.4334014 5.11065736 -8.42525784 3.64907776 -6.8125 1.1875 C-4.35092224 -0.42525784 -2.88934264 -0.4334014 0 0 Z " fill="#CDF7FE" transform="translate(39,16)"/>
<path d="M0 0 C3.96 0 7.92 0 12 0 C12 0.66 12 1.32 12 2 C9.69 2.33 7.38 2.66 5 3 C7.31 3.33 9.62 3.66 12 4 C12 4.99 12 5.98 12 7 C8.7 7 5.4 7 2 7 C2 7.66 2 8.32 2 9 C5.3 9 8.6 9 12 9 C12 9.66 12 10.32 12 11 C8.37 11 4.74 11 1 11 C-0.71466036 7.57067929 -0.05404056 3.78283935 0 0 Z " fill="#7DD9F7" transform="translate(142,23)"/>
<path d="M0 0 C0.99 0.66 1.98 1.32 3 2 C3.7292926 7.02401568 3.7292926 7.02401568 3 10 C0.03885613 12.75455243 -1.83548363 13.89873771 -5.875 14.25 C-6.57625 14.1675 -7.2775 14.085 -8 14 C-7.67 13.34 -7.34 12.68 -7 12 C-5.35 12 -3.7 12 -2 12 C-2 11.34 -2 10.68 -2 10 C-2.804375 10.020625 -3.60875 10.04125 -4.4375 10.0625 C-7 10 -7 10 -8 9 C-8.04080783 7.00041636 -8.04254356 4.99954746 -8 3 C-5.69 3 -3.38 3 -1 3 C-0.67 4.65 -0.34 6.3 0 8 C0 5.36 0 2.72 0 0 Z " fill="#59B4E2" transform="translate(89,13)"/>
<path d="M0 0 C-0.90723613 4.68738665 -1.9547267 9.34193744 -3 14 C-3.66 13.67 -4.32 13.34 -5 13 C-5 12.34 -5 11.68 -5 11 C-8.3 11 -11.6 11 -15 11 C-15 10.34 -15 9.68 -15 9 C-11.7 9 -8.4 9 -5 9 C-5 8.01 -5 7.02 -5 6 C-6.670625 6.061875 -6.670625 6.061875 -8.375 6.125 C-12 6 -12 6 -14 4 C-11.03 4 -8.06 4 -5 4 C-5 3.34 -5 2.68 -5 2 C-5.66 1.67 -6.32 1.34 -7 1 C-4.53721199 -0.231394 -2.7204945 -0.07159196 0 0 Z " fill="#53B8E7" transform="translate(159,21)"/>
<path d="M0 0 C2.475 0.99 2.475 0.99 5 2 C5 5.96 5 9.92 5 14 C4.01 14 3.02 14 2 14 C1.34 15.32 0.68 16.64 0 18 C-1.32 17.67 -2.64 17.34 -4 17 C-3.360625 16.401875 -2.72125 15.80375 -2.0625 15.1875 C0.20310389 13.09189663 0.20310389 13.09189663 1 10 C-0.65 10 -2.3 10 -4 10 C-4.33 10.99 -4.66 11.98 -5 13 C-7.97788882 13.90991047 -9.43497994 14.25960381 -12.3125 12.9375 C-14 11 -14 11 -14.375 7.9375 C-14 5 -14 5 -12 3 C-11.67 5.64 -11.34 8.28 -11 11 C-9.02 11 -7.04 11 -5 11 C-5 10.34 -5 9.68 -5 9 C-2.36 9 0.28 9 3 9 C1.515 4.545 1.515 4.545 0 0 Z " fill="#C9F5FD" transform="translate(22,14)"/>
<path d="M0 0 C4.46976479 2.23488239 4.44161922 2.65879639 6 7 C6.66 7.33 7.32 7.66 8 8 C8 8.66 8 9.32 8 10 C7.01 10 6.02 10 5 10 C4.34 12.31 3.68 14.62 3 17 C2.01 17 1.02 17 0 17 C0 11.39 0 5.78 0 0 Z " fill="#41B4F5" transform="translate(52,14)"/>
<path d="M0 0 C0 6.6 0 13.2 0 20 C-0.99 19.67 -1.98 19.34 -3 19 C-3 17.02 -3 15.04 -3 13 C-3.66 13.66 -4.32 14.32 -5 15 C-7.625 15.125 -7.625 15.125 -10 15 C-9.175 14.525625 -8.35 14.05125 -7.5 13.5625 C-4.65925455 10.65073592 -4.65706817 10.11484254 -4.6875 6.25 C-4.76756155 4.83176684 -4.86404137 3.41396973 -5 2 C-1.125 0 -1.125 0 0 0 Z " fill="#C9F1FB" transform="translate(96,12)"/>
<path d="M0 0 C0 0.66 0 1.32 0 2 C-2.31 2.33 -4.62 2.66 -7 3 C-7 6.3 -7 9.6 -7 13 C-6.01 13 -5.02 13 -4 13 C-4 13.66 -4 14.32 -4 15 C-1.69 15 0.62 15 3 15 C2.67 15.99 2.34 16.98 2 18 C-1.83907326 18.21937561 -4.59369827 17.84124418 -8 16 C-9.93021008 13.00687017 -10.22185294 10.94369691 -9.8125 7.4375 C-9.73644531 6.67308594 -9.66039063 5.90867187 -9.58203125 5.12109375 C-8.12799827 -0.17783179 -5.01093392 -0.33406226 0 0 Z " fill="#42B3F3" transform="translate(37,13)"/>
<path d="M0 0 C1.65 1.65 3.3 3.3 5 5 C1.78658631 6.60670684 -1.62958968 5.82510855 -5.125 5.5625 C-6.25615234 5.48418945 -6.25615234 5.48418945 -7.41015625 5.40429688 C-9.2737937 5.27454996 -11.13694996 5.13792512 -13 5 C-13.33 3.68 -13.66 2.36 -14 1 C-13.07316406 1.01160156 -12.14632812 1.02320313 -11.19140625 1.03515625 C-9.39509766 1.04869141 -9.39509766 1.04869141 -7.5625 1.0625 C-5.77005859 1.07990234 -5.77005859 1.07990234 -3.94140625 1.09765625 C-1.11126659 1.33901792 -1.11126659 1.33901792 0 0 Z " fill="#68CBEF" transform="translate(156,33)"/>
<path d="M0 0 C2.8125 -0.3125 2.8125 -0.3125 6 0 C8.96229937 3.50089926 9.28252018 6.257661 8.90820312 10.77148438 C8.83537109 11.44501953 8.76253906 12.11855469 8.6875 12.8125 C8.62626953 13.50537109 8.56503906 14.19824219 8.50195312 14.91210938 C8.34977344 16.60949822 8.17696065 18.30501549 8 20 C9.32 20.33 10.64 20.66 12 21 C10.35 21 8.7 21 7 21 C6.99742188 20.38253906 6.99484375 19.76507812 6.9921875 19.12890625 C6.69919299 12.71232645 5.15465225 8.92142414 1.27734375 3.8125 C0 2 0 2 0 0 Z " fill="#55B3E7" transform="translate(109,11)"/>
<path d="M0 0 C1.98 0 3.96 0 6 0 C6.05395478 1.62463842 6.09277195 3.24978541 6.125 4.875 C6.14820313 5.77992187 6.17140625 6.68484375 6.1953125 7.6171875 C6 10 6 10 4 12 C2.68 11.67 1.36 11.34 0 11 C0 7.37 0 3.74 0 0 Z " fill="#6ABCE4" transform="translate(133,28)"/>
<path d="M0 0 C0.66 0 1.32 0 2 0 C2.33 4.29 2.66 8.58 3 13 C5.31 13.66 7.62 14.32 10 15 C10 15.99 10 16.98 10 18 C6.7 18 3.4 18 0 18 C0 12.06 0 6.12 0 0 Z " fill="#41B3F5" transform="translate(97,13)"/>
<path d="M0 0 C3.57203608 1.78601804 5.43350965 3.06686817 8 6 C8 6.66 8 7.32 8 8 C7.34 8 6.68 8 6 8 C4.35 6.35 2.7 4.7 1 3 C1 8.61 1 14.22 1 20 C1.99 20 2.98 20 4 20 C4 18.35 4 16.7 4 15 C4.33 15 4.66 15 5 15 C5 16.98 5 18.96 5 21 C3.35 21 1.7 21 0 21 C0 14.07 0 7.14 0 0 Z " fill="#5CAEDA" transform="translate(51,11)"/>
<path d="M0 0 C0.33 0 0.66 0 1 0 C1 2.64 1 5.28 1 8 C3.31 8.33 5.62 8.66 8 9 C8 9.66 8 10.32 8 11 C6.329375 11.4640625 6.329375 11.4640625 4.625 11.9375 C1.2054845 12.82326483 1.2054845 12.82326483 -1 14 C-1.02685938 11.85423363 -1.04633088 9.70837355 -1.0625 7.5625 C-1.07410156 6.36753906 -1.08570312 5.17257813 -1.09765625 3.94140625 C-1 1 -1 1 0 0 Z " fill="#3EB3F7" transform="translate(79,14)"/>
<path d="M0 0 C1.67542976 0.28604898 3.34385343 0.61781233 5 1 C6.125 4.75 6.125 4.75 5 7 C3.35 6.67 1.7 6.34 0 6 C-0.38218767 4.34385343 -0.71395102 2.67542976 -1 1 C-0.67 0.67 -0.34 0.34 0 0 Z " fill="#FAFCFD" transform="translate(34,18)"/>
<path d="M0 0 C0.99 0 1.98 0 3 0 C2.67 3.96 2.34 7.92 2 12 C1.34 12 0.68 12 0 12 C-1.83807713 8.21572356 -2.2031953 6.04711146 -1 2 C-0.67 1.34 -0.34 0.68 0 0 Z " fill="#39B6F9" transform="translate(67,14)"/>
<path d="M0 0 C1.35683751 1.6475884 2.68456721 3.31916921 4 5 C5.11375 6.3303125 5.11375 6.3303125 6.25 7.6875 C8.63011102 12.19271014 8.35515669 16.00807546 8 21 C7.67 21 7.34 21 7 21 C6.34 17.37 5.68 13.74 5 10 C4.34 10 3.68 10 3 10 C0 3.375 0 3.375 0 0 Z " fill="#D9FAFE" transform="translate(108,11)"/>
<path d="M0 0 C0.66 0 1.32 0 2 0 C2 4.29 2 8.58 2 13 C1.34 13 0.68 13 0 13 C-2.215015 9.6774775 -2.19410876 9.12268409 -1.6875 5.375 C-1.58824219 4.57835937 -1.48898438 3.78171875 -1.38671875 2.9609375 C-1 1 -1 1 0 0 Z " fill="#40B3F5" transform="translate(6,15)"/>
<path d="M0 0 C0.66 0 1.32 0 2 0 C2 6.93 2 13.86 2 21 C0.35 21 -1.3 21 -3 21 C-3 19.35 -3 17.7 -3 16 C-2.67 17.32 -2.34 18.64 -2 20 C-1.01 20 -0.02 20 1 20 C1 14.39 1 8.78 1 3 C0.01 2.67 -0.98 2.34 -2 2 C-1.34 1.34 -0.68 0.68 0 0 Z " fill="#61ADD6" transform="translate(69,11)"/>
<path d="M0 0 C0.99 0 1.98 0 3 0 C3.19573608 1.43640171 3.38127816 2.87419504 3.5625 4.3125 C3.66691406 5.11300781 3.77132812 5.91351563 3.87890625 6.73828125 C4 9 4 9 3 12 C2.01 12 1.02 12 0 12 C0 8.04 0 4.08 0 0 Z " fill="#40B3F7" transform="translate(42,16)"/>
<path d="M0 0 C1.65 0 3.3 0 5 0 C5.38218767 1.65614657 5.71395102 3.32457024 6 5 C5 6 5 6 2.4375 6.0625 C1.2309375 6.0315625 1.2309375 6.0315625 0 6 C0 4.02 0 2.04 0 0 Z " fill="#D2F9FE" transform="translate(81,16)"/>
<path d="M0 0 C0.99 0 1.98 0 3 0 C3 3.63 3 7.26 3 11 C2.01 11 1.02 11 0 11 C0 7.37 0 3.74 0 0 Z " fill="#41B3F3" transform="translate(117,20)"/>
<path d="M0 0 C5.94 0 11.88 0 18 0 C18 0.33 18 0.66 18 1 C10.08 1.495 10.08 1.495 2 2 C1.67 3.98 1.34 5.96 1 8 C0.34 8 -0.32 8 -1 8 C-0.67 5.36 -0.34 2.72 0 0 Z " fill="#50B6E5" transform="translate(142,13)"/>
<path d="M0 0 C0.66 0.495 1.32 0.99 2 1.5 C5.828163 3.4140815 8.79580541 3.51704812 13 3 C15.88214887 2.11785113 15.88214887 2.11785113 18 1 C17.34 2.32 16.68 3.64 16 5 C11.38 5 6.76 5 2 5 C1.34 3.35 0.68 1.7 0 0 Z " fill="#D2F6FD" transform="translate(27,28)"/>
<path d="M0 0 C0.66 0.66 1.32 1.32 2 2 C1.625 5.125 1.625 5.125 1 8 C0.67 6.68 0.34 5.36 0 4 C-0.5775 4.515625 -1.155 5.03125 -1.75 5.5625 C-4 7 -4 7 -6.25 6.6875 C-6.8275 6.460625 -7.405 6.23375 -8 6 C-8 5.34 -8 4.68 -8 4 C-7.236875 3.896875 -6.47375 3.79375 -5.6875 3.6875 C-2.82940576 2.95635961 -1.84257115 2.23048087 0 0 Z " fill="#83D4EF" transform="translate(168,26)"/>
<path d="M0 0 C2.8125 -0.3125 2.8125 -0.3125 6 0 C7.75 2.4375 7.75 2.4375 9 5 C9.66 5.33 10.32 5.66 11 6 C10.67 6.66 10.34 7.32 10 8 C9.01 7.67 8.02 7.34 7 7 C6.731875 6.34 6.46375 5.68 6.1875 5 C5.5996875 4.01 5.5996875 4.01 5 3 C1.94091587 2.18415432 1.94091587 2.18415432 -1 2 C-0.67 1.34 -0.34 0.68 0 0 Z " fill="#D8FBFE" transform="translate(110,9)"/>
<path d="M0 0 C3.63 0 7.26 0 11 0 C11.33 0.99 11.66 1.98 12 3 C11.31292969 2.98839844 10.62585937 2.97679687 9.91796875 2.96484375 C9.01691406 2.95582031 8.11585937 2.94679688 7.1875 2.9375 C6.29417969 2.92589844 5.40085937 2.91429687 4.48046875 2.90234375 C1.86586209 2.88990033 1.86586209 2.88990033 -1 4 C-0.67 2.68 -0.34 1.36 0 0 Z " fill="#D9FAFD" transform="translate(7,9)"/>
<path d="M0 0 C0.99 0.66 1.98 1.32 3 2 C2.67 3.32 2.34 4.64 2 6 C-2.62 6 -7.24 6 -12 6 C-12 5.67 -12 5.34 -12 5 C-8.04 5 -4.08 5 0 5 C0 3.35 0 1.7 0 0 Z " fill="#D9F8FD" transform="translate(108,27)"/>
<path d="M0 0 C1.32 0 2.64 0 4 0 C4.96070434 2.88211302 5.10581883 4.69850044 5.0625 7.6875 C5.05347656 8.49574219 5.04445312 9.30398437 5.03515625 10.13671875 C5.02355469 10.75160156 5.01195312 11.36648437 5 12 C3.68 11.67 2.36 11.34 1 11 C1.66 10.01 2.32 9.02 3 8 C3.16699232 4.87478167 3.16699232 4.87478167 3 2 C2.01 1.67 1.02 1.34 0 1 C0 0.67 0 0.34 0 0 Z " fill="#D0F4FC" transform="translate(166,24)"/>
<path d="M0 0 C1.4783226 2.95664519 1.06032783 5.74229737 1 9 C0.34 8.67 -0.32 8.34 -1 8 C-1 6.35 -1 4.7 -1 3 C-2.32 2.34 -3.64 1.68 -5 1 C-3 0 -3 0 0 0 Z " fill="#3FB4F5" transform="translate(89,13)"/>
<path d="M0 0 C1.98 0 3.96 0 6 0 C6.66 1.65 7.32 3.3 8 5 C6 5 6 5 4.375 3.5 C3.92125 3.005 3.4675 2.51 3 2 C2.67 2.99 2.34 3.98 2 5 C1.34 3.35 0.68 1.7 0 0 Z " fill="#68B6DB" transform="translate(109,11)"/>
<path d="M0 0 C0.763125 0.0825 1.52625 0.165 2.3125 0.25 C1.6525 1.9 0.9925 3.55 0.3125 5.25 C-0.0175 4.26 -0.3475 3.27 -0.6875 2.25 C-1.6775 3.24 -2.6675 4.23 -3.6875 5.25 C-4.3475 4.92 -5.0075 4.59 -5.6875 4.25 C-3.34903846 0.31153846 -3.34903846 0.31153846 0 0 Z " fill="#64AFD6" transform="translate(125.6875,10.75)"/>
<path d="M0 0 C2.31 0.33 4.62 0.66 7 1 C7 1.99 7 2.98 7 4 C5.02 4 3.04 4 1 4 C0.67 2.68 0.34 1.36 0 0 Z " fill="#46B2E8" transform="translate(100,27)"/>
<path d="M0 0 C2.31 0 4.62 0 7 0 C7.33 0.99 7.66 1.98 8 3 C9.65 3 11.3 3 13 3 C13 3.33 13 3.66 13 4 C10.69 4 8.38 4 6 4 C5.67 3.01 5.34 2.02 5 1 C3.35 1 1.7 1 0 1 C0 0.67 0 0.34 0 0 Z " fill="#D5F9FE" transform="translate(10,16)"/>
<path d="M0 0 C3.36179774 1.44077046 5.59156268 3.24750021 8 6 C8 6.66 8 7.32 8 8 C7.34 8 6.68 8 6 8 C5.525625 7.34 5.05125 6.68 4.5625 6 C4.046875 5.34 3.53125 4.68 3 4 C2.01 4 1.02 4 0 4 C0 2.68 0 1.36 0 0 Z " fill="#6AB4DC" transform="translate(51,11)"/>
<path d="M0 0 C2.64 0.33 5.28 0.66 8 1 C8.33 2.32 8.66 3.64 9 5 C7.0625 4.625 7.0625 4.625 5 4 C4.67 3.34 4.34 2.68 4 2 C2.68 2 1.36 2 0 2 C0 1.34 0 0.68 0 0 Z " fill="#46B1EE" transform="translate(12,13)"/>
<path d="M0 0 C2.31 0.33 4.62 0.66 7 1 C5 3 5 3 1.375 3.125 C0.26125 3.08375 -0.8525 3.0425 -2 3 C-1.34 2.67 -0.68 2.34 0 2 C0 1.34 0 0.68 0 0 Z " fill="#49B6F0" transform="translate(154,36)"/>
<path d="M0 0 C0.33 0.66 0.66 1.32 1 2 C3.52733235 2.65555119 3.52733235 2.65555119 6 3 C6.33 2.34 6.66 1.68 7 1 C6.67 2.32 6.34 3.64 6 5 C4.35 5 2.7 5 1 5 C0.67 3.35 0.34 1.7 0 0 Z " fill="#DDFCFE" transform="translate(33,22)"/>
<path d="M0 0 C0.99 0 1.98 0 3 0 C3 1.98 3 3.96 3 6 C2.01 6 1.02 6 0 6 C0 4.02 0 2.04 0 0 Z " fill="#43B4F4" transform="translate(135,30)"/>
</svg>
